# xmcd
#
# Track frame offsets: 
#        150
#        18068
#        31406
#        45947
#        63353
#        77712
#        94532
#        113838
#        133601
#        147237
#        166644
#        182129
#        197988
#
# Disc length: 2972 seconds
#
# Revision: 0
# Processed by: cddbd v1.5.2PL0 Copyright (c) Steve Scherf et al.
# Submitted via: ExactAudioCopy v1.1
#
DISCID=9e0b9a0d
DTITLE=Ashleigh Dallas - Other Side Of Town
DYEAR=2015
DGENRE=Pop
TTITLE0=Drive
TTITLE1=Draggin' My Heart
TTITLE2=I've Got You
TTITLE3=If I Fall
TTITLE4=Hearts Are On Fire
TTITLE5=Fear The Dark
TTITLE6=I'm Still Here
TTITLE7=Beautiful Day
TTITLE8=Done and Dusted
TTITLE9=Carnival Ride
TTITLE10=Anyone Like You
TTITLE11=Fiji Time
TTITLE12=Walk On By
EXTD=
EXTT0=
EXTT1=
EXTT2=
EXTT3=
EXTT4=
EXTT5=
EXTT6=
EXTT7=
EXTT8=
EXTT9=
EXTT10=
EXTT11=
EXTT12=
PLAYORDER=
